<svg id="Layer_1" data-name="Layer 1" xmlns="http://www.w3.org/2000/svg" viewBox="0 0 1551 773.59">
<path d="M986.82,416.48q-12.5,8.17-12.5,20.67,0,9.72,5.73,16.15a34.61,34.61,0,0,0,14.58,9.55,54.55,54.55,0,0,0,18.24,3.12,55.94,55.94,0,0,0,26-6.08q11.8-6.06,18.58-18.92t6.77-32.3V399l-40.28,5.9Q999.32,408.33,986.82,416.48Z" transform="translate(0 0)"/>

<path d="M0,0V773.59H1551V0ZM619.05,460.24q-11.46,15.47-32.12,23.62T538.14,492q-30.21,0-50.7-9.21t-31.43-24q-11-14.76-11.64-31.43a7,7,0,0,1,2.26-5,7.32,7.32,0,0,1,5.38-2.26h17.71c2.78,0,4.87.7,6.25,2.08a10.31,10.31,0,0,1,2.78,4.87q1.74,8.32,8.51,16.49t19.1,13.55q12.33,5.38,31.78,5.38,29.86,0,43.93-10.59t14.06-28.31q0-12.15-7.46-19.62t-22.75-13.37q-15.28-5.89-39.59-12.85-25.35-7.29-42-16t-24.83-21.53q-8.16-12.86-8.16-32.65a58,58,0,0,1,10.07-33.51q10.07-14.76,29-23.44t46-8.68q21.52,0,37.68,5.73T601,263a70.11,70.11,0,0,1,16.32,20.49,50.82,50.82,0,0,1,5.9,21.35,7.61,7.61,0,0,1-1.73,4.69q-1.75,2.26-5.56,2.26H597.52a10.61,10.61,0,0,1-5-1.39,9,9,0,0,1-4-5.21q-2.09-14.24-16-24t-36.12-9.73q-22.57,0-36.64,8.69T485.7,307.26q0,11.82,6.6,19.63t20.83,13.71a359.14,359.14,0,0,0,37.16,12.51q27.78,7.63,45.5,16.14T622,390.44q8.5,12.68,8.51,32.47Q630.52,444.78,619.05,460.24Zm208-47.06Q826,436.1,816.66,454a67.74,67.74,0,0,1-27.09,28Q771.86,492,745.46,492T701.36,482a67.74,67.74,0,0,1-27.09-28q-9.37-17.88-10.42-40.81-.35-5.9-.35-15.1c0-6.13.12-11.06.35-14.76q1-23.26,10.59-41a69.16,69.16,0,0,1,27.27-27.78q17.7-10.08,43.75-10.07t43.76,10.07a69.13,69.13,0,0,1,27.26,27.78q9.56,17.71,10.6,41c.22,3.7.34,8.63.34,14.76S827.3,409.25,827.08,413.18Zm76.39,67.38a8.13,8.13,0,0,1-2.08,5.73,7.61,7.61,0,0,1-5.9,2.25H879.16a7.7,7.7,0,0,1-8-8V250a7.7,7.7,0,0,1,8-8h16.33a7.65,7.65,0,0,1,5.9,2.25,8.13,8.13,0,0,1,2.08,5.73Zm193.44,0a7.72,7.72,0,0,1-8,8h-16a7.62,7.62,0,0,1-5.91-2.25,8.13,8.13,0,0,1-2.08-5.73V465.62A63.6,63.6,0,0,1,1033.7,488q-11.46,4-28.13,4a71.09,71.09,0,0,1-31.6-6.95,61,61,0,0,1-22.92-18.75,44,44,0,0,1-8.68-26.74q0-24,19.45-38.2t50.7-18.76l51.74-7.29V365.26q0-16.67-9.55-26.05t-31.08-9.37q-11.46,0-19.45,3.47a39,39,0,0,0-12.67,8.34,49.44,49.44,0,0,0-7.47,9.72,13.24,13.24,0,0,1-2.95,4.51,5.77,5.77,0,0,1-4,1.39H962.16a7.7,7.7,0,0,1-7.64-7.64q0-5.2,4-12.85a52.81,52.81,0,0,1,12.32-14.93q8.34-7.29,21.36-12.33t31.78-5q20.83,0,35.07,5.38t22.4,14.41a55.21,55.21,0,0,1,11.81,20.49,76.37,76.37,0,0,1,3.65,23.27Z" transform="translate(0 0)"/>

<path d="M779.84,344.94Q767,331.23,745.46,331.23t-34.55,13.71q-13,13.72-13.72,40.12-.35,5.2-.35,13.19t.35,13.2q.69,26.4,13.72,40.11t34.55,13.72q21.54,0,34.38-13.72t13.9-40.11q.33-5.2.34-13.2t-.34-13.19Q792.69,358.66,779.84,344.94Z" transform="translate(0 0)"/>

</svg>