<svg id="solaOutline" data-name="Layer 1" xmlns="http://www.w3.org/2000/svg" viewBox="0 0 947.75 365.63"><defs><style>.cls-1{fill:black;stroke:#5970a3;stroke-miterlimit:10;stroke-width:5px;}</style></defs>

<path class="cls-1" d="M156,431.15q-43.7,0-73.33-13.31T37.21,383.19q-15.83-21.35-16.83-45.46a10.05,10.05,0,0,1,3.27-7.28,10.6,10.6,0,0,1,7.78-3.27H57.05q6,0,9,3a14.88,14.88,0,0,1,4,7q2.52,12.06,12.31,23.86T110,380.68q17.82,7.79,46,7.78,43.2,0,63.54-15.32t20.34-40.93q0-17.58-10.8-28.38t-32.9-19.34q-22.09-8.53-57.25-18.58-36.67-10.55-60.78-23.11T42.23,211.66q-11.8-18.57-11.8-47.21Q30.43,137.33,45,116t41.94-33.9q27.38-12.56,66.55-12.56,31.14,0,54.5,8.29t38.92,22.1q15.57,13.82,23.61,29.63t8.54,30.89a11,11,0,0,1-2.51,6.78q-2.52,3.27-8,3.27H241.88a15.42,15.42,0,0,1-7.28-2q-3.76-2-5.78-7.54-3-20.58-23.1-34.65t-52.24-14.07q-32.65,0-53,12.56T80.15,164q0,17.07,9.54,28.38t30.14,19.84q20.6,8.54,53.74,18.08,40.19,11.06,65.8,23.35t37.92,30.64q12.3,18.35,12.31,47,0,31.65-16.58,54t-46.46,34.15Q196.68,431.14,156,431.15Z" transform="translate(-18.38 -67.52)"/>

<path class="cls-1" d="M455.84,431.15q-38.18,0-63.78-14.56a97.93,97.93,0,0,1-39.18-40.43q-13.56-25.87-15.07-59-.51-8.53-.5-21.85t.5-21.35q1.51-33.65,15.32-59.26a100.11,100.11,0,0,1,39.43-40.19q25.62-14.55,63.28-14.56t63.29,14.56a100.17,100.17,0,0,1,39.43,40.19q13.8,25.6,15.32,59.26.5,8,.5,21.35t-.5,21.85q-1.51,33.15-15.07,59a97.93,97.93,0,0,1-39.18,40.43Q494,431.16,455.84,431.15Zm0-38.67q31.14,0,49.73-19.84t20.09-58c.33-5,.5-11.38.5-19.09s-.17-14.06-.5-19.08q-1.5-38.17-20.09-58T455.84,198.6q-31.14,0-50,19.84t-19.84,58q-.51,7.53-.5,19.08c0,7.71.16,14.06.5,19.09q1,38.17,19.84,58T455.84,392.48Z" transform="translate(-18.38 -67.52)"/>

<path class="cls-1" d="M649.21,426.13a11.17,11.17,0,0,1-11.55-11.55V81.07a11.19,11.19,0,0,1,11.55-11.55h23.61q5.52,0,8.54,3.27a11.74,11.74,0,0,1,3,8.28V414.58a11.75,11.75,0,0,1-3,8.29c-2,2.18-4.86,3.26-8.54,3.26Z" transform="translate(-18.38 -67.52)"/>

<path class="cls-1" d="M832,431.15q-25.12,0-45.71-10T753.18,394a63.65,63.65,0,0,1-12.56-38.68q0-34.65,28.13-55.25t73.33-27.12l74.84-10.55V247.83q0-24.12-13.81-37.67t-45-13.57q-16.59,0-28.13,5t-18.33,12a71.19,71.19,0,0,0-10.8,14.07,19.25,19.25,0,0,1-4.27,6.52,8.34,8.34,0,0,1-5.78,2h-21.6a11.15,11.15,0,0,1-11-11.05q0-7.53,5.78-18.58T781.81,185q12.06-10.54,30.89-17.83t46-7.28q30.14,0,50.73,7.78t32.39,20.85a79.89,79.89,0,0,1,17.08,29.63,110.25,110.25,0,0,1,5.27,33.65V414.58a11.16,11.16,0,0,1-11.55,11.55h-23.1c-3.69,0-6.53-1.08-8.54-3.26a11.75,11.75,0,0,1-3-8.29V393a92.1,92.1,0,0,1-17.57,17.83q-11.05,8.79-27.63,14.57T832,431.15Zm10.54-37.67a80.94,80.94,0,0,0,37.67-8.79q17.07-8.78,26.88-27.37t9.79-46.71V296.55l-58.26,8.53q-35.67,5-53.75,16.83t-18.08,29.88q0,14.07,8.29,23.36A49.88,49.88,0,0,0,816.22,389,78.42,78.42,0,0,0,842.58,393.48Z" transform="translate(-18.38 -67.52)"/></svg>