<svg id="Layer_1" data-name="Layer 1" xmlns="http://www.w3.org/2000/svg" viewBox="0 0 1927.61 1080"><defs><style>.cls-1,.cls-2{fill:#fff;}.cls-1{stroke:#000;stroke-miterlimit:10;}</style></defs><rect class="cls-1" x="1920" y="532.89" width="7.11" height="7.11"/><path class="cls-2" d="M7069.88,7106.91c-36.27,0-59.16,31.48-59.16,84.79s22.89,87.1,59.16,87.1,59.17-33.78,59.17-87.1S7106.16,7106.91,7069.88,7106.91Z" transform="translate(-6239.5 -6659.5)"/><path class="cls-2" d="M7534.57,7105.37h-1.64c-6.43,28.07-13.53,59.18-20.92,85.77l-6.38,24.61h56.89l-6.36-24.61C7548.77,7164.55,7541.67,7133.11,7534.57,7105.37Z" transform="translate(-6239.5 -6659.5)"/><path class="cls-2" d="M6239.5,6659.5v1080h1920v-1080Zm576.65,671.21c-34.6,0-71.37-13.1-98.5-38.45l34.53-41.24c18.91,16.46,43.44,27.78,65.32,27.78,25.09,0,37.37-9.88,37.37-25.66,0-16.74-15.11-22.12-38.34-31.67L6782,7206.74c-27.55-11.21-53.66-33.85-53.66-72.49,0-44.06,39.36-79.25,94.71-79.25,30.62,0,62.64,12.07,85.54,34.85l-30.34,37.88c-17.52-13.43-34.18-20.82-55.2-20.82-20.73,0-33.92,8.63-33.92,23.84,0,16.31,17.39,22.24,40.6,31.48l33.89,13.72c32.47,13.13,52.75,34.76,52.75,72.34C6916.34,7292.45,6879.52,7330.71,6816.15,7330.71Zm253.73,0c-71.71,0-120.77-52.13-120.77-139s49.06-136.7,120.77-136.7,120.78,50.16,120.78,136.7C7190.66,7278.58,7141.6,7330.71,7069.88,7330.71Zm336-4.89H7240.75V7059.89h60.12V7275.4h105Zm185.11,0-16.36-63.35h-81.08l-16.43,63.35h-61.47l83.52-265.93h71.93l83.52,265.93Z" transform="translate(-6239.5 -6659.5)"/><rect class="cls-2" x="341.36" y="746.27" width="1229.13" height="103.32"/><rect class="cls-2" x="340.23" y="217.47" width="1230.62" height="103.32"/><rect class="cls-2" x="7810.74" y="6876.94" width="103.32" height="632.14" transform="translate(-6249.57 -6648.48) rotate(-0.08)"/><rect class="cls-2" x="6476.78" y="6876.95" width="103.32" height="632.23" transform="translate(-6249.57 -6650.35) rotate(-0.08)"/></svg>